<?xml version="1.0" encoding="UTF-8"?>
<svg id="Layer_1" data-name="Layer 1" xmlns="http://www.w3.org/2000/svg" viewBox="0 0 507.71 208.55">
  <defs>
    <style>
      .cls-1 {
        fill: #efebce;
      }
    </style>
  </defs>
  <path class="cls-1" d="M88.54,208.54c-20.32-.08-40.28-2.36-59.45-9.16-6.8-2.41-13.15-5.68-18.72-10.26-9.08-7.47-11.96-16.78-9.55-27.85,2.89-13.33,9.6-25,17.06-36.34,11.32-17.21,24.7-32.93,38.56-48.29,6.7-7.42,7.27-14.13,1.91-22.58-5.55-8.76-10.67-17.69-13.48-27.71C40.73,11.64,50.19,3.71,62.07,.24c2.33-.68,4.23,.18,5.89,1.78,4.88,4.71,9.79,9.4,14.71,14.07,4.19,3.98,7.85,3.97,12.06-.03,4.78-4.54,9.61-9.03,14.26-13.69,2.3-2.31,4.75-2.87,7.76-1.75,7.76,2.87,14.49,6.81,16.38,15.34,.97,4.38-.06,8.67-1.36,12.87-2.72,8.8-7.13,16.89-12.37,24.48-5.81,8.43-4.63,16.86,2.05,24.06,15.14,16.31,29.29,33.39,41.02,52.17,6.11,9.78,11.55,19.87,13.94,31.2,2.87,13.58-1.21,23.32-13.13,31.21-10.05,6.65-21.44,10.08-33.2,12.54-13.68,2.85-27.53,4.19-41.54,4.05Zm5.81-136.52c-.27,.07-.54,.13-.8,.2v3.37c0,39.69,0,79.38,.01,119.06,0,4.49-1.04,5.6,5.32,4.55,.77-.13,1.58-.08,2.37-.11,12.4-.51,24.58-2.33,36.5-5.7,3.57-1.01,3.58-1.04,2.27-4.41-13.39-34.32-26.78-68.64-40.17-102.96-1.82-4.67-3.66-9.34-5.5-14.01Zm-10.5,.42c-.2-.06-.39-.12-.59-.18-.4,.94-.81,1.87-1.18,2.82-5.36,13.75-10.7,27.51-16.07,41.26-9.52,24.4-19.02,48.8-28.61,73.17-.87,2.22-.54,3.3,1.93,3.83,3.18,.69,6.31,1.62,9.49,2.31,10.06,2.19,20.28,3.16,30.57,3.68,4.46,.23,4.46,.49,4.46-3.83,0-40.18,0-80.35,0-120.53,0-.85,0-1.69,0-2.54Zm4.59-10.42c5.05,0,10.1,0,15.15,0,1.07,0,2.44,.14,2.63-1.25,.93-6.97,5.65-12.2,8.9-18.11,3.59-6.53,7.09-13.05,8.66-20.43,1.28-6.03-1.76-8.87-6.29-11.5-1.71-1-3.06-.74-4.46,.64-3.93,3.87-7.93,7.68-11.96,11.46-7.65,7.2-17.02,7.17-24.71-.06-3.95-3.72-7.85-7.49-11.79-11.22-.83-.79-1.69-1.92-3.01-1.41-3.45,1.34-6.6,3.16-7.79,6.83-1.12,3.44,.08,6.76,1.14,9.98,2.7,8.19,7.16,15.57,11.83,22.84,1.98,3.09,3.7,6.31,4.22,9.92,.27,1.87,1.19,2.34,2.94,2.33,4.85-.05,9.7-.02,14.55-.02ZM9.58,168.8c-.45,3.81,1.24,7.92,4.66,11.43,3.01,3.08,6.67,5.31,10.46,7.41,2.17,1.2,3.09,.93,4-1.44,5.6-14.67,11.37-29.29,17.08-43.92,8.83-22.61,17.67-45.23,26.45-67.86,.35-.89,1.65-2.22-.09-2.91-1.49-.59-1.98,.76-2.41,1.85-1.33,3.43-3.56,6.31-6,9.08-5.29,6.01-10.68,11.96-15.79,18.11-12.4,14.93-24.17,30.27-32.65,47.66-3.02,6.2-5.57,12.56-5.71,20.58Zm158.23,.26c-.2-8.75-3.06-15.61-6.44-22.27-9.69-19.16-23.24-35.81-37-52.36-5.94-7.14-13.62-13.07-17.11-21.97-.07-.17-.2-.33-.32-.48-.49-.59-1.15-.78-1.85-.46-.75,.33-.44,.95-.26,1.48,.18,.54,.4,1.07,.61,1.6,9.65,24.74,19.29,49.48,28.94,74.21,4.87,12.5,9.79,24.99,14.58,37.52,.78,2.03,1.6,2.46,3.61,1.35,3.01-1.66,5.94-3.41,8.56-5.6,4.48-3.76,7.18-8.29,6.68-13.03Z"/>
  <g>
    <path class="cls-1" d="M185.27,57.03l-4.38,.42c-.8-3.36-2.34-6.06-4.62-8.1-2.28-2.04-5.2-3.06-8.76-3.06-2.64,0-4.9,.46-6.78,1.38-1.88,.92-3.42,2.2-4.62,3.84-1.2,1.64-2.08,3.59-2.64,5.85-.56,2.26-.84,4.73-.84,7.41,0,3.32,.35,6.11,1.05,8.37,.7,2.26,1.7,4.09,3,5.49,1.3,1.4,2.85,2.41,4.65,3.03s3.8,.93,6,.93c1.56,0,3.05-.21,4.47-.63,1.42-.42,2.65-1,3.69-1.74,1.04-.74,1.87-1.6,2.49-2.58,.62-.98,.93-2.03,.93-3.15v-3.12c0-1.84-1.8-2.76-5.4-2.76v-3.42h18.36v3.42c-3.6,0-5.4,.92-5.4,2.76v15.54h-6.06l-1.32-4.44c-.56,.68-1.28,1.34-2.16,1.98-.88,.64-1.91,1.22-3.09,1.74-1.18,.52-2.52,.93-4.02,1.23s-3.15,.45-4.95,.45c-2.84,0-5.58-.43-8.22-1.29-2.64-.86-4.97-2.22-6.99-4.08-2.02-1.86-3.63-4.24-4.83-7.14s-1.8-6.41-1.8-10.53,.6-7.6,1.8-10.56c1.2-2.96,2.83-5.39,4.89-7.29,2.06-1.9,4.48-3.31,7.26-4.23,2.78-.92,5.73-1.38,8.85-1.38s6.01,.49,8.31,1.47c2.3,.98,4.03,2.09,5.19,3.33l1.5-3.78h4.44v14.64Z"/>
    <path class="cls-1" d="M209.27,62.07c1.16-2.28,2.57-3.94,4.23-4.98,1.66-1.04,3.45-1.56,5.37-1.56,.88,0,1.79,.14,2.73,.43,.94,.29,1.79,.73,2.55,1.34,.76,.61,1.38,1.39,1.86,2.33s.72,2.06,.72,3.34c0,1.52-.41,2.77-1.23,3.75-.82,.98-1.93,1.47-3.33,1.47s-2.46-.37-3.18-1.11c-.72-.74-1.08-1.63-1.08-2.67s.33-1.84,.99-2.52c.66-.68,1.67-1.04,3.03-1.08-.32-.6-.84-1.06-1.56-1.38-.72-.32-1.48-.48-2.28-.48-.72,0-1.49,.18-2.31,.54-.82,.36-1.62,.9-2.4,1.62-.78,.72-1.53,1.65-2.25,2.79-.72,1.14-1.34,2.49-1.86,4.05v12.84c0,.92,.5,1.6,1.5,2.04,1,.44,2.46,.66,4.38,.66v3.42h-19.26v-3.42c3.44,0,5.16-.9,5.16-2.7v-18.3c0-1.8-1.72-2.7-5.16-2.7v-3.42h13.38v5.7Z"/>
    <path class="cls-1" d="M261.83,81.02c0,1.76,.6,2.65,1.8,2.65,.56,0,.98-.27,1.26-.81,.28-.54,.42-1.15,.42-1.83v-3.55h2.82v2.71c0,1.32-.16,2.45-.48,3.37-.32,.92-.78,1.66-1.38,2.22-.6,.56-1.31,.96-2.13,1.2-.82,.24-1.71,.36-2.67,.36-1.08,0-2-.17-2.76-.51-.76-.34-1.4-.79-1.92-1.35-.52-.56-.92-1.2-1.2-1.92-.28-.72-.5-1.48-.66-2.28-.44,.88-1.05,1.72-1.83,2.52-.78,.8-1.71,1.51-2.79,2.13-1.08,.62-2.3,1.11-3.66,1.47-1.36,.36-2.82,.54-4.38,.54-3.76,0-6.51-.77-8.25-2.31-1.74-1.54-2.61-3.63-2.61-6.27,0-1.6,.31-2.93,.93-3.99,.62-1.06,1.48-1.95,2.58-2.67,1.1-.72,2.38-1.29,3.84-1.71,1.46-.42,3.02-.8,4.68-1.14,1.66-.34,3.38-.67,5.16-.99,1.78-.32,3.55-.72,5.31-1.2v-1.86c0-1-.13-1.94-.39-2.82-.26-.88-.68-1.65-1.26-2.31s-1.31-1.18-2.19-1.56c-.88-.38-1.92-.57-3.12-.57-2.04,0-3.75,.2-5.13,.6-1.38,.4-2.49,.94-3.33,1.62,.92,.08,1.7,.38,2.34,.9,.64,.52,.96,1.26,.96,2.22,0,1.12-.36,2.03-1.08,2.73-.72,.7-1.78,1.05-3.18,1.05s-2.45-.37-3.15-1.11c-.7-.74-1.05-1.77-1.05-3.09,0-1,.32-2,.96-3,.64-1,1.56-1.9,2.76-2.69,1.2-.79,2.69-1.43,4.47-1.92,1.78-.49,3.81-.73,6.09-.73,1.84,0,3.62,.17,5.34,.51,1.72,.34,3.24,.92,4.56,1.74,1.32,.82,2.37,1.94,3.15,3.37s1.17,3.22,1.17,5.38v14.91Zm-7.86-10.97c-2.56,.64-4.78,1.23-6.66,1.77-1.88,.54-3.44,1.12-4.68,1.74-1.24,.62-2.16,1.33-2.76,2.13-.6,.8-.9,1.8-.9,3,0,1.44,.5,2.56,1.5,3.36,1,.8,2.52,1.2,4.56,1.2s3.85-.49,5.43-1.47,2.75-2.11,3.51-3.39v-8.34Z"/>
    <path class="cls-1" d="M308.69,80.79c0,1.8,1.76,2.7,5.28,2.7v3.42h-17.52v-3.42c2.68,0,4.02-.9,4.02-2.7v-13.32c0-2.52-.4-4.32-1.2-5.4-.8-1.08-1.88-1.62-3.24-1.62-1.04,0-2.07,.2-3.09,.6-1.02,.4-1.99,.96-2.91,1.68-.92,.72-1.76,1.57-2.52,2.55s-1.38,2.03-1.86,3.15v12.36c0,1.8,1.34,2.7,4.02,2.7v3.42h-17.4v-3.42c3.44,0,5.16-.9,5.16-2.7v-18.3c0-1.8-1.72-2.7-5.16-2.7v-3.42h13.38l.02,6.12c1.52-1.96,3.43-3.57,5.71-4.83s4.89-1.89,7.81-1.89,5.34,.7,7,2.1c1.66,1.4,2.49,3.68,2.49,6.84v16.08Z"/>
    <path class="cls-1" d="M349.55,80.79c0,1.8,1.76,2.7,5.28,2.7v3.42h-11.34l-.48-4.98c-.96,2.04-2.48,3.55-4.56,4.53-2.08,.98-4.52,1.47-7.32,1.47-1.96,0-3.82-.3-5.58-.9-1.76-.6-3.31-1.56-4.65-2.88-1.34-1.32-2.4-3.01-3.18-5.07-.78-2.06-1.17-4.55-1.17-7.47s.44-5.54,1.32-7.62c.88-2.08,2.04-3.78,3.48-5.1,1.44-1.32,3.1-2.27,4.98-2.85,1.88-.58,3.84-.87,5.88-.87,1.92,0,3.69,.26,5.31,.78,1.62,.52,2.89,1.24,3.81,2.16v-11.28c0-1.8-1.74-2.7-5.22-2.7v-3.42h13.44v40.08Zm-15.96-21.72c-1.56,0-2.9,.3-4.02,.9-1.12,.6-2.03,1.44-2.73,2.52-.7,1.08-1.22,2.37-1.56,3.87-.34,1.5-.51,3.15-.51,4.95s.17,3.44,.51,4.92c.34,1.48,.86,2.76,1.56,3.84,.7,1.08,1.61,1.92,2.73,2.52,1.12,.6,2.46,.9,4.02,.9s2.88-.3,3.96-.9,1.95-1.44,2.61-2.52,1.14-2.36,1.44-3.84c.3-1.48,.45-3.12,.45-4.92s-.15-3.45-.45-4.95c-.3-1.5-.78-2.79-1.44-3.87s-1.53-1.92-2.61-2.52c-1.08-.6-2.4-.9-3.96-.9Z"/>
    <path class="cls-1" d="M414.71,80.79c0,1.8,1.7,2.7,5.1,2.7v3.42h-17.28v-3.42c2.64,0,3.96-.9,3.96-2.7v-13.32c0-2.52-.29-4.32-.87-5.4s-1.46-1.62-2.66-1.62c-1.79,0-3.49,.7-5.11,2.1-1.61,1.4-2.98,3.36-4.09,5.88v12.36c0,1.8,1.28,2.7,3.84,2.7v3.42h-16.02v-3.42c2.64,0,3.96-.9,3.96-2.7v-13.32c0-2.52-.3-4.32-.9-5.4-.6-1.08-1.51-1.62-2.75-1.62-1.79,0-3.51,.7-5.17,2.1-1.65,1.4-3,3.36-4.03,5.88v12.36c0,1.8,1.32,2.7,3.96,2.7v3.42h-17.22v-3.42c3.36,0,5.04-.9,5.04-2.7v-18.3c0-1.8-1.68-2.7-5.04-2.7v-3.42h13.26l-.05,6.3c.64-.88,1.37-1.74,2.19-2.58s1.74-1.58,2.77-2.22c1.02-.64,2.15-1.15,3.4-1.53,1.24-.38,2.63-.57,4.15-.57,2.29,0,4.18,.57,5.68,1.71,1.5,1.14,2.44,2.91,2.8,5.31,1.32-1.96,3.04-3.62,5.16-4.98,2.12-1.36,4.56-2.04,7.32-2.04s4.73,.7,6.27,2.1c1.54,1.4,2.31,3.68,2.31,6.84v16.08Z"/>
    <path class="cls-1" d="M454.85,81.02c0,1.76,.6,2.65,1.8,2.65,.56,0,.98-.27,1.26-.81,.28-.54,.42-1.15,.42-1.83v-3.55h2.82v2.71c0,1.32-.16,2.45-.48,3.37-.32,.92-.78,1.66-1.38,2.22-.6,.56-1.31,.96-2.13,1.2-.82,.24-1.71,.36-2.67,.36-1.08,0-2-.17-2.76-.51-.76-.34-1.4-.79-1.92-1.35-.52-.56-.92-1.2-1.2-1.92s-.5-1.48-.66-2.28c-.44,.88-1.05,1.72-1.83,2.52-.78,.8-1.71,1.51-2.79,2.13-1.08,.62-2.3,1.11-3.66,1.47-1.36,.36-2.82,.54-4.38,.54-3.76,0-6.51-.77-8.25-2.31-1.74-1.54-2.61-3.63-2.61-6.27,0-1.6,.31-2.93,.93-3.99s1.48-1.95,2.58-2.67c1.1-.72,2.38-1.29,3.84-1.71,1.46-.42,3.02-.8,4.68-1.14,1.66-.34,3.38-.67,5.16-.99,1.78-.32,3.55-.72,5.31-1.2v-1.86c0-1-.13-1.94-.39-2.82-.26-.88-.68-1.65-1.26-2.31-.58-.66-1.31-1.18-2.19-1.56-.88-.38-1.92-.57-3.12-.57-2.04,0-3.75,.2-5.13,.6-1.38,.4-2.49,.94-3.33,1.62,.92,.08,1.7,.38,2.34,.9s.96,1.26,.96,2.22c0,1.12-.36,2.03-1.08,2.73-.72,.7-1.78,1.05-3.18,1.05s-2.45-.37-3.15-1.11-1.05-1.77-1.05-3.09c0-1,.32-2,.96-3s1.56-1.9,2.76-2.69c1.2-.79,2.69-1.43,4.47-1.92,1.78-.49,3.81-.73,6.09-.73,1.84,0,3.62,.17,5.34,.51s3.24,.92,4.56,1.74c1.32,.82,2.37,1.94,3.15,3.37s1.17,3.22,1.17,5.38v14.91Zm-7.86-10.97c-2.56,.64-4.78,1.23-6.66,1.77-1.88,.54-3.44,1.12-4.68,1.74-1.24,.62-2.16,1.33-2.76,2.13-.6,.8-.9,1.8-.9,3,0,1.44,.5,2.56,1.5,3.36,1,.8,2.52,1.2,4.56,1.2s3.85-.49,5.43-1.47,2.75-2.11,3.51-3.39v-8.34Z"/>
    <path class="cls-1" d="M465.65,56.07c1.12-.6,2.01-1.17,2.67-1.71s1.16-1.06,1.5-1.56c.34-.5,.56-.97,.66-1.41,.1-.44,.15-.86,.15-1.26,0-.72-.3-1.08-.9-1.08-2.8,0-4.2-1.32-4.2-3.96,0-1.48,.42-2.62,1.26-3.42,.84-.8,1.98-1.2,3.42-1.2,1.8,0,3.19,.53,4.17,1.59,.98,1.06,1.47,2.61,1.47,4.65,0,2.72-.77,4.99-2.31,6.81-1.54,1.82-3.71,3.43-6.51,4.83l-1.38-2.28Z"/>
    <path class="cls-1" d="M506.21,67.35l-3.54,.42c-.44-2.8-1.61-4.88-3.51-6.24-1.9-1.36-4.29-2.04-7.17-2.04-1.68,0-3.04,.33-4.08,.99-1.04,.66-1.56,1.55-1.56,2.67,0,1.28,.53,2.23,1.59,2.85,1.06,.62,2.38,1.13,3.96,1.53,1.58,.4,3.29,.77,5.13,1.11,1.84,.34,3.55,.85,5.13,1.53,1.58,.68,2.9,1.63,3.96,2.85,1.06,1.22,1.59,2.89,1.59,5.01,0,1.52-.28,2.86-.84,4.02-.56,1.16-1.35,2.13-2.37,2.91-1.02,.78-2.23,1.36-3.63,1.74s-2.94,.57-4.62,.57c-2.4,0-4.38-.2-5.94-.6s-2.88-.98-3.96-1.74c-.28-.16-.57-.32-.87-.48-.3-.16-.59-.24-.87-.24-.08,0-.3,.23-.66,.69-.36,.46-.62,1.13-.78,2.01h-3.48v-11.52l3.48-.36c.2,1.36,.67,2.58,1.41,3.66,.74,1.08,1.66,1.99,2.76,2.73,1.1,.74,2.34,1.31,3.72,1.71,1.38,.4,2.79,.6,4.23,.6,1.92,0,3.37-.39,4.35-1.17,.98-.78,1.47-1.75,1.47-2.9,0-1.24-.53-2.16-1.59-2.78-1.06-.62-2.38-1.13-3.96-1.53-1.58-.4-3.29-.78-5.13-1.14-1.84-.36-3.55-.89-5.13-1.59-1.58-.7-2.9-1.67-3.96-2.9-1.06-1.24-1.59-2.93-1.59-5.09,0-2.75,.96-4.91,2.88-6.47,1.92-1.56,4.64-2.33,8.16-2.33,1.84,0,3.54,.25,5.1,.75s2.82,1.03,3.78,1.59c.32,.2,.62,.37,.9,.51,.28,.14,.56,.21,.84,.21,.12,0,.34-.22,.66-.66,.32-.44,.58-1.06,.78-1.86h3.36v10.98Z"/>
  </g>
  <g>
    <path class="cls-1" d="M246.16,128.83l-4.38,.36c-.8-3.36-2.33-6.06-4.59-8.1s-5.19-3.06-8.79-3.06c-2.64,0-4.9,.46-6.78,1.38-1.88,.92-3.41,2.2-4.59,3.84-1.18,1.64-2.05,3.6-2.61,5.88-.56,2.28-.84,4.78-.84,7.5,0,3,.35,5.61,1.05,7.83,.7,2.22,1.68,4.06,2.94,5.52,1.26,1.46,2.76,2.55,4.5,3.27,1.74,.72,3.67,1.08,5.79,1.08,4.16,0,7.44-.97,9.84-2.91,2.4-1.94,4.14-4.67,5.22-8.19l4.02,1.38c-.56,1.92-1.33,3.78-2.31,5.58-.98,1.8-2.25,3.4-3.81,4.8-1.56,1.4-3.46,2.53-5.7,3.39-2.24,.86-4.9,1.29-7.98,1.29-3.24,0-6.26-.46-9.06-1.38-2.8-.92-5.25-2.32-7.35-4.21-2.1-1.88-3.75-4.25-4.95-7.12-1.2-2.86-1.8-6.24-1.8-10.12s.59-7.56,1.77-10.54c1.18-2.98,2.8-5.45,4.86-7.39s4.47-3.39,7.23-4.36c2.76-.96,5.72-1.44,8.88-1.44s6.01,.49,8.31,1.46c2.3,.97,4.03,2.09,5.19,3.34l1.5-3.78h4.44v14.7Z"/>
    <path class="cls-1" d="M264.88,152.59c0,1.8,1.74,2.7,5.22,2.7v3.42h-18.6v-3.42c3.44,0,5.16-.9,5.16-2.7v-33.96c0-1.8-1.72-2.7-5.16-2.7v-3.42h13.38v40.08Z"/>
    <path class="cls-1" d="M307.96,143.32c0,5.23-1.44,9.27-4.32,12.13-2.88,2.85-7.06,4.28-12.54,4.28-2.16,0-4.22-.25-6.18-.75-1.96-.5-3.67-1.36-5.13-2.58s-2.63-2.83-3.51-4.85c-.88-2.02-1.32-4.52-1.32-7.52,0-5.47,1.38-9.67,4.14-12.61s6.98-4.4,12.66-4.4c2.2,0,4.29,.27,6.27,.81s3.7,1.44,5.16,2.69c1.46,1.26,2.62,2.92,3.48,5,.86,2.08,1.29,4.67,1.29,7.79Zm-16.23-12.39c-2.99,0-5.16,.97-6.52,2.91-1.36,1.94-2.03,4.73-2.03,8.37,0,2.72,.18,4.96,.54,6.72,.36,1.76,.89,3.15,1.59,4.17,.7,1.02,1.53,1.73,2.51,2.13,.98,.4,2.1,.6,3.38,.6,3.15,0,5.36-1.06,6.64-3.18s1.91-5.12,1.91-9c0-2.52-.19-4.6-.57-6.24-.38-1.64-.93-2.94-1.64-3.9s-1.56-1.63-2.54-2.01c-.98-.38-2.06-.57-3.26-.57Z"/>
    <path class="cls-1" d="M338.92,139.15l-3.54,.42c-.44-2.8-1.61-4.88-3.51-6.24-1.9-1.36-4.29-2.04-7.17-2.04-1.68,0-3.04,.33-4.08,.99-1.04,.66-1.56,1.55-1.56,2.67,0,1.28,.53,2.23,1.59,2.85,1.06,.62,2.38,1.13,3.96,1.53,1.58,.4,3.29,.77,5.13,1.11s3.55,.85,5.13,1.53c1.58,.68,2.9,1.63,3.96,2.85,1.06,1.22,1.59,2.89,1.59,5.01,0,1.52-.28,2.86-.84,4.02-.56,1.16-1.35,2.13-2.37,2.91s-2.23,1.36-3.63,1.74-2.94,.57-4.62,.57c-2.4,0-4.38-.2-5.94-.6-1.56-.4-2.88-.98-3.96-1.74-.28-.16-.57-.32-.87-.48-.3-.16-.59-.24-.87-.24-.08,0-.3,.23-.66,.69-.36,.46-.62,1.13-.78,2.01h-3.48v-11.52l3.48-.36c.2,1.36,.67,2.58,1.41,3.66s1.66,1.99,2.76,2.73c1.1,.74,2.34,1.31,3.72,1.71,1.38,.4,2.79,.6,4.23,.6,1.92,0,3.37-.39,4.35-1.17,.98-.78,1.47-1.75,1.47-2.9,0-1.24-.53-2.16-1.59-2.78-1.06-.62-2.38-1.13-3.96-1.53-1.58-.4-3.29-.78-5.13-1.14s-3.55-.89-5.13-1.59c-1.58-.7-2.9-1.67-3.96-2.91-1.06-1.24-1.59-2.93-1.59-5.09,0-2.75,.96-4.91,2.88-6.47,1.92-1.56,4.64-2.33,8.16-2.33,1.84,0,3.54,.25,5.1,.75,1.56,.5,2.82,1.03,3.78,1.59,.32,.2,.62,.37,.9,.51,.28,.14,.56,.21,.84,.21,.12,0,.34-.22,.66-.66s.58-1.06,.78-1.86h3.36v10.98Z"/>
    <path class="cls-1" d="M353.5,142.99c.08,4.12,.84,7.29,2.28,9.51,1.44,2.22,3.62,3.33,6.54,3.33,2.28,0,4.3-.56,6.06-1.68s2.98-2.94,3.66-5.46l3.72,.72c-.36,1.32-.89,2.6-1.59,3.84-.7,1.24-1.61,2.34-2.73,3.3-1.12,.96-2.47,1.73-4.05,2.31-1.58,.58-3.43,.87-5.55,.87s-4.1-.25-6.06-.75c-1.96-.5-3.71-1.37-5.25-2.62-1.54-1.24-2.78-2.92-3.72-5.02s-1.41-4.76-1.41-7.96c0-2.44,.37-4.68,1.11-6.7,.74-2.02,1.81-3.76,3.21-5.2s3.11-2.56,5.13-3.37c2.02-.8,4.33-1.2,6.93-1.2,10.08,0,15.12,5.36,15.12,16.08h-23.4Zm15.96-3.12c0-1.33-.16-2.57-.48-3.71s-.8-2.15-1.44-3.02c-.64-.87-1.43-1.55-2.37-2.05s-2.03-.75-3.27-.75c-2.16,0-4,.75-5.52,2.23-1.52,1.49-2.44,3.92-2.76,7.31h15.84Z"/>
    <path class="cls-1" d="M395.02,128.17h7.98l-.3,4.32c-1.12-.24-2.31-.41-3.57-.51-1.26-.1-2.63-.15-4.11-.15v20.94c0,1.8,.88,2.7,2.64,2.7,.92,0,1.55-.25,1.89-.75,.34-.5,.51-1.15,.51-1.95v-3.48h2.94v2.64c0,1.08-.11,2.06-.33,2.94-.22,.88-.62,1.63-1.2,2.25s-1.35,1.11-2.31,1.47c-.96,.36-2.18,.54-3.66,.54-3.12,0-5.35-.7-6.69-2.1s-2.01-3.36-2.01-5.88v-19.32h-5.22v-2.88c1.12-.08,2.17-.24,3.15-.48s1.84-.66,2.58-1.26,1.32-1.44,1.74-2.52c.42-1.08,.63-2.48,.63-4.2v-1.32l5.34-.42v9.42Z"/>
  </g>
</svg>