<?xml version="1.0" standalone="no"?>
<!DOCTYPE svg PUBLIC "-//W3C//DTD SVG 20010904//EN"
 "http://www.w3.org/TR/2001/REC-SVG-20010904/DTD/svg10.dtd">
<svg version="1.0" xmlns="http://www.w3.org/2000/svg"
 width="836.000000pt" height="836.000000pt" viewBox="0 0 836.000000 836.000000"
 preserveAspectRatio="xMidYMid meet">
<metadata>
Created by potrace 1.14, written by Peter Selinger 2001-2017
</metadata>
<g transform="translate(0.000000,836.000000) scale(0.100000,-0.100000)"
fill="#000000" stroke="none">
<path d="M3090 8334 c-182 -62 -315 -128 -411 -204 -289 -228 -359 -515 -225
-924 70 -212 200 -503 298 -664 21 -34 38 -64 38 -66 0 -2 41 -70 91 -152 118
-192 161 -268 183 -327 97 -256 39 -484 -184 -727 -8 -9 -49 -54 -90 -101 -79
-89 -138 -154 -155 -173 -6 -6 -58 -65 -115 -131 -57 -66 -109 -125 -114 -131
-6 -6 -27 -30 -46 -54 -19 -24 -40 -48 -45 -54 -18 -19 -287 -347 -345 -421
-30 -38 -61 -77 -67 -85 -26 -31 -170 -222 -232 -307 -36 -48 -81 -110 -102
-138 -37 -51 -151 -216 -179 -260 -106 -167 -201 -312 -209 -322 -6 -7 -11
-15 -11 -18 0 -3 -12 -24 -27 -48 -15 -23 -28 -44 -28 -47 0 -3 -8 -16 -17
-30 -59 -91 -215 -403 -288 -575 -36 -85 -122 -362 -146 -470 -15 -72 -24
-137 -19 -144 3 -6 1 -12 -4 -15 -6 -4 -8 -66 -6 -149 4 -157 12 -209 53 -332
20 -61 92 -205 112 -225 3 -3 18 -23 35 -45 127 -173 335 -332 655 -501 29
-15 118 -54 170 -74 19 -7 40 -16 45 -20 12 -8 371 -128 400 -133 11 -2 27 -6
35 -9 24 -9 160 -45 220 -58 30 -7 73 -17 95 -23 22 -6 49 -12 60 -14 11 -2
63 -12 115 -23 52 -10 113 -22 135 -25 22 -4 50 -8 62 -10 80 -12 111 -17 138
-22 17 -3 41 -6 55 -8 14 -2 46 -6 72 -9 26 -3 73 -9 105 -12 32 -3 74 -7 93
-10 19 -2 65 -6 102 -9 37 -3 89 -7 115 -10 191 -20 984 -28 1213 -12 158 11
180 13 378 32 18 1 51 6 75 9 23 4 62 9 87 11 25 3 61 7 80 10 19 3 51 8 70
11 69 9 95 13 98 15 3 3 14 5 72 13 30 4 62 9 70 11 41 8 84 17 160 30 8 2 76
17 150 35 74 17 143 33 152 35 130 28 400 116 563 182 174 71 511 252 545 293
3 4 27 21 53 39 63 43 212 191 267 265 79 108 135 234 169 379 7 26 9 52 6 58
-4 5 -2 9 3 9 10 0 9 286 -1 350 -59 380 -240 814 -551 1315 -79 128 -301 463
-371 560 -19 28 -46 66 -59 85 -29 42 -229 309 -247 329 -7 8 -37 46 -66 85
-30 39 -64 82 -76 96 -12 14 -49 59 -81 100 -33 41 -62 77 -66 80 -3 3 -39 46
-80 95 -41 50 -87 104 -101 120 -15 17 -77 89 -139 160 -62 72 -120 137 -129
146 -9 9 -45 49 -81 89 -36 41 -81 90 -100 110 -119 125 -230 272 -230 305 0
7 -6 18 -14 24 -8 6 -16 22 -19 34 -5 20 -16 61 -33 122 -3 11 -7 60 -8 110
-5 174 39 294 189 515 122 180 322 540 308 554 -4 3 -2 6 4 6 10 0 20 22 29
64 3 11 12 29 22 39 9 11 15 20 13 21 -4 1 21 78 40 121 5 11 24 72 42 135 93
312 83 492 -37 706 -74 133 -269 281 -476 362 -30 12 -68 27 -85 33 -43 18
-73 23 -137 22 -80 0 -119 -27 -294 -195 -255 -248 -447 -430 -508 -481 -54
-47 -109 -69 -179 -75 -61 -4 -73 -2 -132 27 -60 30 -104 67 -274 230 -487
466 -471 452 -517 477 -48 25 -124 28 -184 8z m66 -397 c19 -11 168 -150 432
-406 198 -190 323 -268 482 -299 68 -13 225 -6 286 13 109 33 240 110 315 184
9 9 87 84 174 166 87 83 196 187 243 233 46 45 94 90 107 98 35 23 101 20 136
-5 15 -11 31 -21 34 -21 14 0 93 -61 134 -102 62 -62 94 -135 96 -222 2 -56
-12 -151 -26 -186 -1 -3 -3 -9 -4 -15 -39 -146 -181 -488 -223 -537 -8 -10
-12 -18 -8 -18 3 0 -4 -17 -17 -37 -13 -21 -26 -46 -30 -56 -9 -25 -218 -371
-228 -377 -4 -3 -35 -58 -68 -122 -53 -105 -86 -190 -97 -255 -2 -13 -6 -35
-9 -50 -6 -35 -29 -53 -69 -54 -17 0 -311 -1 -653 -2 -573 0 -623 1 -647 17
-29 18 -41 42 -49 96 -14 91 -70 227 -137 330 -19 30 -37 60 -40 65 -3 6 -41
69 -86 140 -72 115 -218 370 -220 385 0 3 -21 48 -46 100 -52 110 -121 293
-144 383 -1 4 -3 9 -4 12 -6 12 -23 122 -25 160 -2 33 24 133 44 173 33 65
107 129 203 177 96 48 111 51 144 32z m375 -2457 c25 -14 24 -50 -1 -95 -11
-19 -20 -38 -21 -43 -2 -8 -7 -24 -51 -137 -16 -44 -34 -89 -39 -100 -15 -34
-140 -359 -142 -370 -1 -5 -4 -12 -7 -15 -3 -3 -11 -23 -19 -45 -8 -22 -18
-51 -24 -65 -6 -14 -11 -27 -12 -30 -1 -3 -5 -14 -10 -25 -4 -11 -28 -72 -52
-135 -24 -63 -48 -124 -53 -135 -9 -19 -53 -134 -55 -145 -1 -3 -7 -18 -14
-35 -32 -74 -103 -262 -108 -282 -3 -13 -9 -23 -12 -23 -4 0 -8 -6 -8 -12 0
-7 -46 -129 -102 -270 -55 -142 -101 -260 -101 -263 0 -3 -9 -24 -19 -48 -11
-23 -52 -125 -91 -227 -40 -102 -77 -196 -83 -210 -6 -14 -11 -27 -12 -30 -6
-24 -19 -60 -30 -85 -26 -59 -77 -190 -80 -206 -2 -9 -13 -33 -24 -55 -12 -21
-21 -43 -21 -48 0 -9 -36 -106 -64 -171 -7 -16 -19 -46 -26 -65 -6 -19 -16
-44 -21 -55 -4 -11 -27 -67 -49 -125 -22 -58 -44 -114 -49 -125 -5 -11 -39
-99 -76 -195 -37 -96 -71 -184 -76 -195 -5 -11 -29 -74 -54 -140 -25 -66 -71
-187 -102 -268 -80 -210 -100 -225 -210 -165 -229 124 -419 275 -490 385 -10
16 -20 30 -23 33 -16 13 -71 145 -78 182 -14 83 -3 328 18 408 5 19 12 51 15
70 7 40 53 184 92 285 54 138 352 711 383 735 4 3 13 16 20 30 21 41 174 275
182 278 5 2 8 8 8 13 0 8 28 50 107 159 19 25 38 50 43 57 6 7 10 15 10 18 0
3 6 13 13 21 6 8 17 20 22 27 6 7 42 55 80 107 38 52 74 100 80 106 30 34 45
55 45 63 0 5 3 11 8 13 4 2 23 23 42 48 19 25 37 47 40 50 3 3 23 28 45 55 84
107 302 374 364 444 35 41 69 81 75 88 6 8 22 26 36 41 14 15 50 56 80 92 30
35 62 72 70 80 8 9 29 32 45 51 59 67 181 204 218 245 109 119 209 265 257
379 35 82 63 100 111 75z m1376 -10 c12 -10 27 -36 34 -57 15 -48 92 -178 156
-264 72 -99 146 -183 323 -369 130 -136 250 -275 250 -289 0 -6 3 -11 8 -11 4
0 30 -28 57 -62 28 -34 59 -72 70 -84 11 -12 29 -35 40 -50 11 -15 26 -34 34
-42 8 -8 72 -87 143 -176 70 -88 132 -166 137 -172 5 -7 50 -65 100 -130 50
-66 94 -123 98 -129 119 -147 553 -801 553 -832 0 -4 6 -14 13 -22 26 -30 200
-364 256 -491 32 -73 89 -220 96 -250 2 -8 11 -40 20 -70 15 -56 18 -71 35
-170 18 -112 27 -287 17 -330 -2 -8 -7 -31 -11 -50 -11 -44 -59 -144 -91 -190
-74 -104 -216 -222 -393 -329 -202 -122 -213 -121 -273 34 -7 17 -13 32 -14
35 -1 3 -5 14 -10 25 -4 11 -39 101 -77 200 -38 99 -75 196 -83 215 -17 42
-130 332 -186 480 -48 126 -53 138 -68 170 -6 14 -22 57 -37 95 -14 39 -31 84
-39 100 -7 17 -18 44 -24 60 -6 17 -16 44 -22 60 -7 17 -13 32 -14 35 -4 10
-18 47 -36 89 -11 24 -19 47 -19 51 0 4 -8 25 -17 46 -9 22 -18 44 -19 49 -1
6 -21 55 -44 110 -23 55 -43 105 -44 110 -2 6 -7 19 -11 30 -5 11 -44 112 -87
225 -44 113 -88 224 -99 247 -10 24 -19 46 -19 50 0 4 -27 75 -59 158 -33 82
-84 213 -114 290 -30 77 -58 149 -62 160 -5 11 -9 22 -10 25 -1 3 -5 14 -10
25 -65 164 -165 423 -165 428 0 4 -9 29 -21 55 -29 65 -29 65 -109 272 -39
102 -75 194 -79 205 -12 27 -55 139 -57 145 0 3 -6 19 -13 35 -7 17 -28 71
-47 120 -19 50 -39 97 -44 106 -6 11 -3 22 8 33 22 22 54 20 79 -4z m-921
-2546 l-1 -2525 -23 -18 c-16 -11 -39 -16 -70 -15 -75 3 -294 15 -332 19 -19
2 -75 6 -125 10 -110 9 -134 11 -210 20 -33 4 -71 8 -85 10 -51 6 -120 15
-152 20 -18 3 -46 7 -63 10 -73 11 -162 25 -180 29 -198 40 -283 60 -297 67
-10 6 -18 7 -18 5 0 -3 -11 -1 -25 4 -14 5 -36 12 -48 14 -12 2 -44 10 -72 16
-27 6 -61 14 -75 16 -13 3 -29 9 -36 15 -6 5 -13 6 -16 3 -3 -3 -16 8 -28 23
-17 22 -21 36 -16 67 4 21 12 48 18 60 7 11 13 23 13 26 2 11 102 271 126 325
5 11 29 74 54 140 25 66 50 129 55 140 5 11 35 85 66 165 31 80 80 206 109
280 29 74 81 207 115 295 101 260 186 479 195 500 5 11 9 22 10 25 0 3 29 77
64 165 35 88 64 166 64 173 0 6 4 12 9 12 4 0 8 5 8 11 0 7 15 51 34 98 18 47
65 167 104 266 39 99 91 234 116 300 26 66 51 129 55 140 5 11 22 54 37 95 15
41 31 80 35 85 3 6 12 28 19 50 7 22 18 54 26 70 7 17 29 73 49 125 20 52 56
145 80 205 49 125 58 148 59 155 2 9 138 353 152 385 12 29 54 138 76 200 6
17 22 54 35 83 12 29 23 56 23 60 0 21 47 109 56 105 9 -3 12 -633 10 -2529z
m435 2509 c7 -16 16 -39 22 -53 19 -49 26 -67 87 -225 34 -88 68 -173 75 -190
8 -16 28 -68 46 -115 17 -47 35 -94 40 -105 5 -11 34 -85 64 -165 31 -80 60
-154 65 -165 5 -11 25 -63 45 -115 87 -226 127 -326 136 -342 5 -10 9 -22 9
-28 0 -6 9 -29 19 -53 11 -23 42 -103 71 -177 28 -74 55 -144 60 -155 9 -20
81 -208 122 -315 12 -30 27 -68 34 -85 7 -16 23 -59 37 -95 69 -177 156 -400
178 -455 7 -16 13 -33 14 -37 2 -5 4 -10 5 -13 1 -3 3 -8 5 -12 1 -5 7 -21 14
-38 38 -96 65 -165 78 -200 8 -22 21 -53 28 -70 7 -16 18 -46 25 -65 7 -19 18
-48 25 -65 7 -16 20 -48 28 -70 39 -102 95 -246 163 -420 41 -104 97 -248 125
-320 28 -71 61 -156 75 -188 13 -32 24 -62 24 -67 0 -5 11 -33 24 -62 35 -76
95 -238 102 -275 10 -50 -1 -55 -261 -123 -220 -57 -543 -120 -692 -136 -17
-1 -49 -5 -70 -8 -72 -11 -118 -15 -303 -31 -25 -2 -99 -7 -165 -10 -66 -3
-138 -8 -160 -11 -143 -16 -191 -15 -215 4 l-24 19 0 2532 c-1 2416 0 2531 17
2531 10 0 22 -12 28 -27z"/>
</g>
</svg>
